<?xml version="1.0" encoding="UTF-8" standalone="no"?>
<svg
   xmlns:dc="http://purl.org/dc/elements/1.1/"
   xmlns:cc="http://creativecommons.org/ns#"
   xmlns:rdf="http://www.w3.org/1999/02/22-rdf-syntax-ns#"
   xmlns:svg="http://www.w3.org/2000/svg"
   xmlns="http://www.w3.org/2000/svg"
   xmlns:sodipodi="http://sodipodi.sourceforge.net/DTD/sodipodi-0.dtd"
   xmlns:inkscape="http://www.inkscape.org/namespaces/inkscape"
   version="1.1"
   id="Layer_1"
   x="0px"
   y="0px"
   viewBox="0 0 512 512"
   style="enable-background:new 0 0 512 512;"
   xml:space="preserve"
   sodipodi:docname="Lotus_10.svg"
   inkscape:version="1.0.2-2 (e86c870879, 2021-01-15)"><metadata
   id="metadata121"><rdf:RDF><cc:Work
       rdf:about=""><dc:format>image/svg+xml</dc:format><dc:type
         rdf:resource="http://purl.org/dc/dcmitype/StillImage" /><dc:title></dc:title></cc:Work></rdf:RDF></metadata><defs
   id="defs119" /><sodipodi:namedview
   pagecolor="#ffffff"
   bordercolor="#666666"
   borderopacity="1"
   objecttolerance="10"
   gridtolerance="10"
   guidetolerance="10"
   inkscape:pageopacity="0"
   inkscape:pageshadow="2"
   inkscape:window-width="1280"
   inkscape:window-height="737"
   id="namedview117"
   showgrid="false"
   inkscape:zoom="1.03125"
   inkscape:cx="331.23828"
   inkscape:cy="256"
   inkscape:window-x="-8"
   inkscape:window-y="-8"
   inkscape:window-maximized="1"
   inkscape:current-layer="Layer_1" />
<style
   type="text/css"
   id="style2">
	.st0{fill:#8B8B8B;}
	.st1{display:none;fill:url(#SVGID_1_);}
	.st2{display:none;fill:url(#SVGID_2_);}
	.st3{display:none;fill:url(#SVGID_3_);}
	.st4{display:none;fill:url(#SVGID_4_);}
	.st5{display:none;fill:url(#SVGID_5_);}
	.st6{display:none;fill:url(#SVGID_6_);}
	.st7{display:none;fill:#8B8B8B;}
</style>
<ellipse
   transform="matrix(0.7071 -0.7071 0.7071 0.7071 -105.8976 256.9605)"
   class="st0"
   cx="257.23"
   cy="256.31"
   rx="47.04"
   ry="47.04"
   id="ellipse4" />
<ellipse
   transform="matrix(0.7071 -0.7071 0.7071 0.7071 -105.8976 256.9605)"
   class="st0"
   cx="257.23"
   cy="256.31"
   rx="47.04"
   ry="47.04"
   id="ellipse6" />
<ellipse
   transform="matrix(0.7071 -0.7071 0.7071 0.7071 -105.8976 256.9605)"
   class="st0"
   cx="257.23"
   cy="256.31"
   rx="47.04"
   ry="47.04"
   id="ellipse8" />
<radialGradient
   id="SVGID_1_"
   cx="261"
   cy="34.3333"
   r="278.6699"
   gradientUnits="userSpaceOnUse">
	<stop
   offset="0"
   style="stop-color:#FDE14A"
   id="stop10" />
	<stop
   offset="1"
   style="stop-color:#FFE86C"
   id="stop12" />
</radialGradient>
<path
   class="st1"
   d="M257.23,168.87c-48.29,0-87.44,39.15-87.44,87.44c0,48.29,39.15,87.44,87.44,87.44  c48.29,0,87.44-39.15,87.44-87.44C344.67,208.02,305.52,168.87,257.23,168.87z M257.23,308.22c-28.67,0-51.91-23.24-51.91-51.91  s23.24-51.92,51.91-51.92c28.67,0,51.91,23.25,51.91,51.92S285.9,308.22,257.23,308.22z"
   id="path15" />
<radialGradient
   id="SVGID_2_"
   cx="261"
   cy="34.3333"
   r="278.6699"
   gradientUnits="userSpaceOnUse">
	<stop
   offset="0"
   style="stop-color:#FDE14A"
   id="stop17" />
	<stop
   offset="1"
   style="stop-color:#FFE86C"
   id="stop19" />
</radialGradient>
<path
   class="st2"
   d="M319.61,324.29l0.16,0.16c-6.21,5.71-13.2,10.59-20.81,14.42c1.22-0.63,2.44-1.29,3.64-1.99  C308.86,333.27,314.55,329.03,319.61,324.29z"
   id="path22" />
<ellipse
   transform="matrix(0.7071 -0.7071 0.7071 0.7071 -105.8976 256.9605)"
   class="st0"
   cx="257.23"
   cy="256.31"
   rx="47.04"
   ry="47.04"
   id="ellipse24"
   style="fill:#00aa44;fill-opacity:1" />
<path
   class="st0"
   d="M257.23,168.87c-48.29,0-87.44,39.15-87.44,87.44c0,48.29,39.15,87.44,87.44,87.44  c48.29,0,87.44-39.15,87.44-87.44C344.67,208.02,305.52,168.87,257.23,168.87z M257.23,308.22c-28.67,0-51.91-23.24-51.91-51.91  s23.24-51.92,51.91-51.92c28.67,0,51.91,23.25,51.91,51.92S285.9,308.22,257.23,308.22z"
   id="path26"
   style="fill:#00aa44;fill-opacity:1" />
<radialGradient
   id="SVGID_3_"
   cx="261"
   cy="34.3333"
   r="278.6699"
   gradientUnits="userSpaceOnUse">
	<stop
   offset="0"
   style="stop-color:#FDE14A"
   id="stop28" />
	<stop
   offset="1"
   style="stop-color:#FFE86C"
   id="stop30" />
</radialGradient>
<path
   class="st3"
   d="M303.46,176.47c-6.26-3.61-12.77-6.42-19.41-8.43l0.07-0.27c13.86,4.21,26.35,11.59,36.61,21.3l-0.12,0.12  C315.51,184.4,309.79,180.12,303.46,176.47z"
   id="path33" />
<radialGradient
   id="SVGID_4_"
   cx="261"
   cy="34.3333"
   r="278.6699"
   gradientUnits="userSpaceOnUse">
	<stop
   offset="0"
   style="stop-color:#FDE14A"
   id="stop35" />
	<stop
   offset="1"
   style="stop-color:#FFE86C"
   id="stop37" />
</radialGradient>
<path
   class="st4"
   d="M345.11,283.75l0.44,0.12c-4.31,13.83-11.78,26.26-21.56,36.46l-0.02-0.02c4.78-5.1,9.06-10.82,12.71-17.15  C340.29,296.9,343.1,290.39,345.11,283.75z"
   id="path40" />
<radialGradient
   id="SVGID_5_"
   cx="261"
   cy="34.3333"
   r="278.6699"
   gradientUnits="userSpaceOnUse">
	<stop
   offset="0"
   style="stop-color:#FDE14A"
   id="stop42" />
	<stop
   offset="1"
   style="stop-color:#FFE86C"
   id="stop44" />
</radialGradient>
<path
   class="st5"
   d="M324.88,193.25c9.65,10.34,16.95,22.89,21.06,36.82l-0.27,0.07c-2.02-6.7-4.84-13.27-8.49-19.59  c-3.62-6.26-7.86-11.94-12.59-17.01L324.88,193.25z"
   id="path47" />
<radialGradient
   id="SVGID_6_"
   cx="261"
   cy="34.3333"
   r="278.6699"
   gradientUnits="userSpaceOnUse">
	<stop
   offset="0"
   style="stop-color:#FDE14A"
   id="stop49" />
	<stop
   offset="1"
   style="stop-color:#FFE86C"
   id="stop51" />
</radialGradient>
<path
   class="st6"
   d="M349.72,256.31c0,7.54-0.9,14.86-2.61,21.88l-0.21-0.06c1.6-6.81,2.44-13.9,2.44-21.21  c0-7.22-0.83-14.27-2.4-21.02l0.49-0.13C348.93,242.38,349.72,249.25,349.72,256.31z"
   id="path54" />
<g
   id="g114"
   style="fill:#00aa44">
	<g
   id="g58"
   style="fill:#00aa44">
		<path
   class="st0"
   d="M230.44,167.48c-6.7,2.02-13.27,4.84-19.59,8.49c-6.26,3.62-11.95,7.86-17.01,12.59l-58.15-58.01l-16.84-16.8    c-9.83-9.81-14.77-23.62-12.89-37.38c2.11-15.34,11.03-29.59,25.48-37.93c15.1-8.72,32.76-9,47.5-2.29    c12,5.45,20.73,16.27,24.13,29l6.07,22.66L230.44,167.48z"
   id="path56"
   style="fill:#00aa44" />
	</g>
	<g
   id="g62"
   style="fill:#00aa44">
		<path
   class="st0"
   d="M189.49,192.54c-4.79,5.1-9.07,10.83-12.72,17.15c-3.61,6.26-6.42,12.77-8.43,19.41l-79.37-21.17l-22.99-6.13    c-13.41-3.57-24.6-13.07-29.84-25.92c-5.86-14.34-5.25-31.14,3.09-45.6c8.72-15.1,23.87-24.16,39.99-25.73    c13.12-1.27,26.09,3.73,35.41,13.05l16.57,16.59L189.49,192.54z"
   id="path60"
   style="fill:#00aa44" />
	</g>
	<g
   id="g66"
   style="fill:#00aa44">
		<path
   class="st0"
   d="M164.11,255.93c0,7.23,0.83,14.27,2.4,21.02l-79.32,21.36l-22.97,6.18c-13.4,3.61-27.84,0.98-38.8-7.53    C13.18,287.47,5.3,272.62,5.3,255.93c0-17.44,8.59-32.86,21.76-42.28c10.73-7.66,24.46-9.81,37.19-6.4l22.65,6.08l79.65,21.39    C164.95,241.53,164.11,248.63,164.11,255.93z"
   id="path64"
   style="fill:#00aa44" />
	</g>
	<g
   id="g70"
   style="fill:#00aa44">
		<path
   class="st0"
   d="M188.86,319.31l-58.01,58.15l-16.8,16.84c-9.81,9.83-23.62,14.77-37.38,12.89    c-15.34-2.1-29.59-11.03-37.94-25.48c-8.71-15.1-8.99-32.76-2.28-47.5c5.45-12,16.26-20.73,29-24.13l22.65-6.06l79.68-21.3    c2.02,6.69,4.84,13.26,8.49,19.58C179.89,308.56,184.13,314.25,188.86,319.31z"
   id="path68"
   style="fill:#00aa44" />
	</g>
	<g
   id="g74"
   style="fill:#00aa44">
		<path
   class="st0"
   d="M229.4,344.81l-21.17,79.38l-6.13,22.98c-3.58,13.41-13.07,24.6-25.92,29.85c-14.35,5.85-31.14,5.24-45.6-3.1    c-15.1-8.72-24.16-23.87-25.73-39.99c-1.27-13.12,3.73-26.08,13.05-35.4l16.59-16.58l58.35-58.28c5.1,4.79,10.83,9.06,17.15,12.71    C216.25,340,222.76,342.8,229.4,344.81z"
   id="path72"
   style="fill:#00aa44" />
	</g>
	<g
   id="g78"
   style="fill:#00aa44">
		<path
   class="st0"
   d="M297.26,487.74c-9.49,12.24-24.34,20.11-41.03,20.11c-17.44,0-32.86-8.59-42.28-21.76    c-7.67-10.73-9.82-24.46-6.4-37.19l6.08-22.65l21.39-79.65c6.81,1.6,13.91,2.44,21.21,2.44c6.82,0,13.48-0.74,19.89-2.16    c0.38-0.07,0.75-0.15,1.13-0.24l21.36,79.32l6.18,22.97C308.4,462.33,305.77,476.77,297.26,487.74z"
   id="path76"
   style="fill:#00aa44" />
	</g>
	<g
   id="g84"
   style="fill:#00aa44">
		<path
   class="st0"
   d="M407.49,436.48c-2.11,15.34-11.03,29.59-25.48,37.94c-15.1,8.71-32.76,8.99-47.5,2.29    c-12-5.46-20.73-16.27-24.13-29.01l-6.06-22.65l-21.31-79.68c5.23-1.58,10.38-3.64,15.4-6.22c0.02,0,0.04-0.01,0.07-0.03    c0.16-0.08,0.32-0.16,0.48-0.25c7.61-3.83,14.6-8.71,20.81-14.42l57.99,57.86l16.84,16.79    C404.43,408.91,409.37,422.72,407.49,436.48z"
   id="path80"
   style="fill:#00aa44" />
		<path
   class="st7"
   d="M319.77,324.45c-6.21,5.71-13.2,10.59-20.81,14.42c1.22-0.63,2.44-1.29,3.64-1.99    c6.26-3.61,11.95-7.85,17.01-12.59L319.77,324.45z"
   id="path82"
   style="fill:#00aa44" />
	</g>
	<g
   id="g90"
   style="fill:#00aa44">
		<path
   class="st0"
   d="M474.22,382.57c-8.72,15.1-23.87,24.16-39.99,25.73c-13.12,1.28-26.09-3.73-35.41-13.05l-16.57-16.59    l-58.26-58.33c9.78-10.2,17.25-22.63,21.56-36.46l78.94,21.05l22.98,6.13c13.41,3.58,24.6,13.07,29.84,25.92    C483.17,351.32,482.56,368.11,474.22,382.57z"
   id="path86"
   style="fill:#00aa44" />
		<path
   class="st7"
   d="M345.55,283.87c-4.31,13.83-11.78,26.26-21.56,36.46l-0.02-0.02c4.78-5.1,9.06-10.82,12.71-17.15    c3.61-6.26,6.42-12.77,8.43-19.41L345.55,283.87z"
   id="path88"
   style="fill:#00aa44" />
	</g>
	<g
   id="g96"
   style="fill:#00aa44">
		<path
   class="st0"
   d="M508.15,256.92c0,17.44-8.59,32.87-21.76,42.28c-10.73,7.67-24.46,9.82-37.19,6.4l-22.65-6.08l-79.44-21.33    c1.71-7.02,2.61-14.34,2.61-21.88c0-7.06-0.79-13.93-2.29-20.54l78.83-21.22l22.97-6.19c13.4-3.61,27.84-0.98,38.81,7.53    C500.28,225.38,508.15,240.23,508.15,256.92z"
   id="path92"
   style="fill:#00aa44" />
		<path
   class="st7"
   d="M349.72,256.31c0,7.54-0.9,14.86-2.61,21.88l-0.21-0.06c1.6-6.81,2.44-13.9,2.44-21.21    c0-7.22-0.83-14.27-2.4-21.02l0.49-0.13C348.93,242.38,349.72,249.25,349.72,256.31z"
   id="path94"
   style="fill:#00aa44" />
	</g>
	<g
   id="g102"
   style="fill:#00aa44">
		<path
   class="st0"
   d="M477,178.64c-5.45,12-16.26,20.73-29,24.14l-22.65,6.06l-79.41,21.23c-4.11-13.93-11.41-26.48-21.06-36.82    l57.72-57.86l16.8-16.84c9.81-9.83,23.62-14.77,37.38-12.89c15.34,2.11,29.59,11.03,37.94,25.48    C483.43,146.24,483.71,163.9,477,178.64z"
   id="path98"
   style="fill:#00aa44" />
		<path
   class="st7"
   d="M345.94,230.07l-0.27,0.07c-2.02-6.7-4.84-13.27-8.49-19.59c-3.62-6.26-7.86-11.94-12.59-17.01l0.29-0.29    C334.53,203.59,341.83,216.14,345.94,230.07z"
   id="path100"
   style="fill:#00aa44" />
	</g>
	<g
   id="g108"
   style="fill:#00aa44">
		<path
   class="st0"
   d="M395.55,114.33l-16.59,16.57l-58.23,58.17c-10.26-9.71-22.75-17.09-36.61-21.3l21.1-79.1l6.13-22.99    c3.58-13.41,13.07-24.6,25.92-29.84c14.35-5.86,31.14-5.25,45.6,3.09c15.1,8.72,24.16,23.87,25.73,39.99    C409.88,92.04,404.87,105.01,395.55,114.33z"
   id="path104"
   style="fill:#00aa44" />
		<path
   class="st7"
   d="M320.73,189.07l-0.12,0.12c-5.1-4.79-10.82-9.07-17.15-12.72c-6.26-3.61-12.77-6.42-19.41-8.43l0.07-0.27    C297.98,171.98,310.47,179.36,320.73,189.07z"
   id="path106"
   style="fill:#00aa44" />
	</g>
	<g
   id="g112"
   style="fill:#00aa44">
		<path
   class="st0"
   d="M305.9,63.95l-6.08,22.65l-21.39,79.65c-6.81-1.59-13.91-2.44-21.21-2.44c-7.22,0-14.27,0.83-21.02,2.41    l-21.36-79.33l-6.18-22.96c-3.61-13.41-0.98-27.85,7.53-38.81C225.68,12.88,240.53,5,257.22,5c17.44,0,32.86,8.59,42.28,21.77    C307.17,37.49,309.32,51.22,305.9,63.95z"
   id="path110"
   style="fill:#00aa44" />
	</g>
</g>
</svg>
