<?xml version="1.0" encoding="UTF-8"?>
<svg xmlns="http://www.w3.org/2000/svg" xmlns:xlink="http://www.w3.org/1999/xlink" width="900" height="320" viewBox="0 0 900 320">
<rect x="-90" y="-32" width="1080" height="384" fill="rgb(97%, 96%, 94%)" fill-opacity="1"/>
<path fill="none" stroke-width="0.75" stroke-linecap="butt" stroke-linejoin="miter" stroke="rgb(35%, 30%, 28%)" stroke-opacity="0.22" stroke-miterlimit="10" d="M 60 160 L 840 160 "/>
<path fill-rule="nonzero" fill="rgb(8%, 8%, 10%)" fill-opacity="1" d="M 336.488281 147.054688 C 331.917969 147.054688 327.898438 146.34375 324.425781 144.921875 C 320.953125 143.5 318.199219 141.472656 316.164062 138.835938 C 314.128906 136.199219 312.976562 133.078125 312.714844 129.476562 L 312.671875 128.859375 L 320.582031 128.859375 L 320.667969 129.476562 C 320.992188 131.585938 321.855469 133.410156 323.261719 134.949219 C 324.667969 136.484375 326.535156 137.671875 328.863281 138.507812 C 331.195312 139.34375 333.882812 139.757812 336.929688 139.757812 C 339.976562 139.757812 342.613281 139.328125 344.839844 138.464844 C 347.066406 137.601562 348.785156 136.359375 350.003906 134.75 C 351.21875 133.140625 351.828125 131.25 351.828125 129.082031 L 351.828125 129.039062 C 351.828125 126.253906 350.859375 124.027344 348.925781 122.359375 C 346.992188 120.6875 343.84375 119.367188 339.476562 118.402344 L 332.445312 116.863281 C 328.316406 115.957031 324.910156 114.71875 322.230469 113.152344 C 319.546875 111.585938 317.546875 109.648438 316.230469 107.351562 C 314.914062 105.050781 314.253906 102.363281 314.253906 99.285156 L 314.253906 99.242188 C 314.28125 95.757812 315.25 92.6875 317.152344 90.035156 C 319.058594 87.382812 321.6875 85.304688 325.042969 83.796875 C 328.398438 82.289062 332.242188 81.53125 336.578125 81.53125 C 340.707031 81.53125 344.398438 82.273438 347.652344 83.75 C 350.902344 85.230469 353.503906 87.289062 355.453125 89.925781 C 357.398438 92.5625 358.492188 95.609375 358.726562 99.066406 L 358.769531 99.726562 L 350.859375 99.726562 L 350.773438 99.109375 C 350.449219 96.941406 349.65625 95.097656 348.398438 93.574219 C 347.140625 92.050781 345.492188 90.878906 343.453125 90.058594 C 341.417969 89.238281 339.054688 88.828125 336.359375 88.828125 C 333.546875 88.828125 331.085938 89.25 328.976562 90.101562 C 326.867188 90.953125 325.230469 92.136719 324.074219 93.660156 C 322.917969 95.183594 322.339844 96.972656 322.339844 99.023438 L 322.339844 99.066406 C 322.339844 100.796875 322.769531 102.320312 323.636719 103.636719 C 324.5 104.953125 325.824219 106.074219 327.613281 107 C 329.398438 107.921875 331.671875 108.691406 334.421875 109.304688 L 341.453125 110.84375 C 345.789062 111.78125 349.3125 113.027344 352.023438 114.578125 C 354.734375 116.132812 356.726562 118.058594 358 120.359375 C 359.273438 122.65625 359.914062 125.417969 359.914062 128.640625 L 359.914062 128.6875 C 359.914062 132.4375 358.96875 135.6875 357.078125 138.441406 C 355.1875 141.195312 352.492188 143.320312 348.992188 144.8125 C 345.492188 146.308594 341.324219 147.054688 336.488281 147.054688 Z M 336.488281 147.054688 "/>
<path fill-rule="nonzero" fill="rgb(8%, 8%, 10%)" fill-opacity="1" d="M 368.4375 146 L 368.4375 100.296875 L 376.085938 100.296875 L 376.085938 146 Z M 372.261719 92.5625 C 370.941406 92.5625 369.8125 92.09375 368.875 91.15625 C 367.9375 90.21875 367.46875 89.089844 367.46875 87.773438 C 367.46875 86.425781 367.9375 85.289062 368.875 84.367188 C 369.8125 83.445312 370.941406 82.984375 372.261719 82.984375 C 373.609375 82.984375 374.742188 83.445312 375.667969 84.367188 C 376.589844 85.289062 377.050781 86.425781 377.050781 87.773438 C 377.050781 89.089844 376.589844 90.21875 375.667969 91.15625 C 374.742188 92.09375 373.609375 92.5625 372.261719 92.5625 Z M 372.261719 92.5625 "/>
<path fill-rule="nonzero" fill="rgb(8%, 8%, 10%)" fill-opacity="1" d="M 386.5 146 L 386.5 100.296875 L 394.144531 100.296875 L 394.144531 106.800781 L 394.320312 106.800781 C 395.550781 104.664062 397.339844 102.898438 399.683594 101.503906 C 402.027344 100.113281 404.925781 99.417969 408.382812 99.417969 C 413.394531 99.417969 417.28125 100.933594 420.050781 103.964844 C 422.820312 107 424.203125 111.121094 424.203125 116.335938 L 424.203125 146 L 416.558594 146 L 416.558594 117.699219 C 416.558594 113.976562 415.6875 111.128906 413.941406 109.152344 C 412.199219 107.175781 409.570312 106.1875 406.054688 106.1875 C 403.652344 106.1875 401.558594 106.71875 399.769531 107.789062 C 397.984375 108.859375 396.597656 110.359375 395.617188 112.292969 C 394.636719 114.226562 394.144531 116.5 394.144531 119.105469 L 394.144531 146 Z M 386.5 146 "/>
<path fill-rule="nonzero" fill="rgb(8%, 8%, 10%)" fill-opacity="1" d="M 453.25 162.257812 C 449.5 162.257812 446.226562 161.726562 443.429688 160.65625 C 440.632812 159.585938 438.375 158.136719 436.664062 156.304688 C 434.949219 154.472656 433.84375 152.429688 433.34375 150.175781 L 433.257812 149.78125 L 440.945312 149.78125 L 441.125 150.175781 C 441.855469 151.816406 443.269531 153.113281 445.363281 154.0625 C 447.457031 155.015625 450.058594 155.492188 453.164062 155.492188 C 457.179688 155.492188 460.28125 154.460938 462.480469 152.394531 C 464.679688 150.328125 465.777344 147.523438 465.777344 143.976562 L 465.777344 138.132812 L 465.601562 138.132812 C 464.691406 139.832031 463.519531 141.296875 462.085938 142.527344 C 460.648438 143.757812 459 144.71875 457.140625 145.40625 C 455.28125 146.09375 453.25 146.4375 451.054688 146.4375 C 447.21875 146.4375 443.839844 145.464844 440.925781 143.515625 C 438.011719 141.570312 435.738281 138.828125 434.113281 135.300781 C 432.488281 131.769531 431.675781 127.632812 431.675781 122.882812 L 431.675781 122.839844 C 431.675781 118.09375 432.503906 113.972656 434.15625 110.46875 C 435.8125 106.96875 438.105469 104.25 441.035156 102.320312 C 443.964844 100.386719 447.363281 99.417969 451.230469 99.417969 C 453.398438 99.417969 455.390625 99.785156 457.207031 100.515625 C 459.023438 101.25 460.640625 102.257812 462.0625 103.546875 C 463.484375 104.835938 464.664062 106.332031 465.601562 108.03125 L 465.777344 108.03125 L 465.777344 100.296875 L 473.421875 100.296875 L 473.421875 144.726562 C 473.421875 148.269531 472.601562 151.355469 470.960938 153.976562 C 469.320312 156.597656 466.992188 158.632812 463.976562 160.085938 C 460.957031 161.535156 457.382812 162.257812 453.25 162.257812 Z M 452.726562 139.671875 C 455.332031 139.671875 457.609375 138.976562 459.558594 137.585938 C 461.507812 136.195312 463.03125 134.238281 464.128906 131.71875 C 465.226562 129.199219 465.777344 126.253906 465.777344 122.882812 L 465.777344 122.839844 C 465.777344 119.472656 465.226562 116.542969 464.128906 114.050781 C 463.03125 111.5625 461.5 109.628906 459.535156 108.25 C 457.574219 106.875 455.304688 106.1875 452.726562 106.1875 C 450.03125 106.1875 447.6875 106.867188 445.695312 108.230469 C 443.703125 109.59375 442.171875 111.515625 441.101562 114.007812 C 440.03125 116.5 439.496094 119.441406 439.496094 122.839844 L 439.496094 122.882812 C 439.496094 126.339844 440.03125 129.324219 441.101562 131.828125 C 442.171875 134.332031 443.703125 136.265625 445.695312 137.628906 C 447.6875 138.992188 450.03125 139.671875 452.726562 139.671875 Z M 452.726562 139.671875 "/>
<path fill-rule="nonzero" fill="rgb(8%, 8%, 10%)" fill-opacity="1" d="M 483.792969 146 L 483.792969 100.296875 L 491.441406 100.296875 L 491.441406 146 Z M 487.617188 92.5625 C 486.296875 92.5625 485.171875 92.09375 484.234375 91.15625 C 483.296875 90.21875 482.828125 89.089844 482.828125 87.773438 C 482.828125 86.425781 483.296875 85.289062 484.234375 84.367188 C 485.171875 83.445312 486.296875 82.984375 487.617188 82.984375 C 488.964844 82.984375 490.101562 83.445312 491.023438 84.367188 C 491.945312 85.289062 492.40625 86.425781 492.40625 87.773438 C 492.40625 89.089844 491.945312 90.21875 491.023438 91.15625 C 490.101562 92.09375 488.964844 92.5625 487.617188 92.5625 Z M 487.617188 92.5625 "/>
<path fill-rule="nonzero" fill="rgb(8%, 8%, 10%)" fill-opacity="1" d="M 501.855469 146 L 501.855469 100.296875 L 509.5 100.296875 L 509.5 106.800781 L 509.679688 106.800781 C 510.910156 104.664062 512.695312 102.898438 515.039062 101.503906 C 517.382812 100.113281 520.28125 99.417969 523.742188 99.417969 C 528.75 99.417969 532.640625 100.933594 535.40625 103.964844 C 538.175781 107 539.5625 111.121094 539.5625 116.335938 L 539.5625 146 L 531.914062 146 L 531.914062 117.699219 C 531.914062 113.976562 531.042969 111.128906 529.300781 109.152344 C 527.554688 107.175781 524.925781 106.1875 521.410156 106.1875 C 519.007812 106.1875 516.914062 106.71875 515.125 107.789062 C 513.339844 108.859375 511.957031 110.359375 510.972656 112.292969 C 509.992188 114.226562 509.5 116.5 509.5 119.105469 L 509.5 146 Z M 501.855469 146 "/>
<path fill-rule="nonzero" fill="rgb(8%, 8%, 10%)" fill-opacity="1" d="M 568.082031 146.878906 C 563.714844 146.878906 559.957031 145.914062 556.808594 143.976562 C 553.660156 142.042969 551.242188 139.3125 549.558594 135.78125 C 547.875 132.25 547.03125 128.101562 547.03125 123.324219 L 547.03125 123.28125 C 547.03125 118.5625 547.882812 114.410156 549.578125 110.820312 C 551.277344 107.234375 553.667969 104.433594 556.742188 102.429688 C 559.820312 100.421875 563.4375 99.417969 567.597656 99.417969 C 571.757812 99.417969 575.339844 100.378906 578.34375 102.296875 C 581.34375 104.214844 583.652344 106.902344 585.265625 110.359375 C 586.875 113.816406 587.679688 117.832031 587.679688 122.402344 L 587.679688 125.214844 L 550.855469 125.214844 L 550.855469 119.238281 L 583.902344 119.238281 L 580.035156 124.773438 L 580.035156 121.828125 C 580.035156 118.285156 579.5 115.355469 578.429688 113.039062 C 577.359375 110.726562 575.890625 109.003906 574.015625 107.878906 C 572.140625 106.75 569.984375 106.1875 567.554688 106.1875 C 565.121094 106.1875 562.9375 106.777344 561.007812 107.964844 C 559.074219 109.152344 557.546875 110.910156 556.4375 113.238281 C 555.324219 115.566406 554.765625 118.429688 554.765625 121.828125 L 554.765625 124.773438 C 554.765625 127.996094 555.316406 130.75 556.414062 133.035156 C 557.511719 135.320312 559.070312 137.070312 561.09375 138.289062 C 563.117188 139.503906 565.503906 140.109375 568.257812 140.109375 C 570.191406 140.109375 571.917969 139.820312 573.441406 139.234375 C 574.964844 138.648438 576.242188 137.839844 577.265625 136.816406 C 578.289062 135.789062 579.023438 134.617188 579.460938 133.300781 L 579.59375 132.90625 L 587.109375 132.90625 L 587.023438 133.34375 C 586.640625 135.21875 585.914062 136.976562 584.847656 138.617188 C 583.777344 140.257812 582.40625 141.699219 580.738281 142.945312 C 579.066406 144.191406 577.164062 145.15625 575.023438 145.847656 C 572.886719 146.535156 570.570312 146.878906 568.082031 146.878906 Z M 568.082031 146.878906 "/>
<path fill-rule="nonzero" fill="rgb(52%, 11%, 7%)" fill-opacity="1" d="M 559.960938 236.730469 C 560.617188 237.769531 561.152344 239.066406 561.5625 240.625 C 561.972656 242.183594 562.203125 244.027344 562.257812 246.160156 C 562.367188 248.292969 562.285156 250.355469 562.011719 252.351562 C 561.738281 254.347656 561.273438 256.300781 560.617188 258.214844 C 559.304688 261.984375 556.710938 265.265625 552.828125 268.054688 C 548.945312 270.84375 543.945312 272.316406 537.820312 272.480469 C 528.527344 272.753906 522.980469 269.941406 521.175781 264.035156 C 520.082031 260.375 520.109375 256.574219 521.257812 252.636719 C 521.859375 250.613281 522.570312 248.6875 523.390625 246.855469 C 524.210938 245.023438 525.140625 243.261719 526.179688 241.566406 C 526.453125 241.238281 526.699219 241.074219 526.914062 241.074219 C 527.242188 241.074219 527.460938 241.210938 527.570312 241.484375 C 527.679688 241.757812 527.652344 242.085938 527.488281 242.46875 C 523.554688 249.6875 522.40625 254.960938 524.046875 258.296875 C 526.289062 263.105469 531.015625 265.292969 538.230469 264.855469 C 543.425781 264.527344 547.933594 263.40625 551.761719 261.492188 C 555.425781 259.632812 557.882812 257.558594 559.140625 255.261719 C 559.195312 255.152344 559.25 255.003906 559.304688 254.8125 C 559.359375 254.621094 559.414062 254.359375 559.46875 254.03125 C 559.578125 253.703125 559.550781 253.089844 559.386719 252.1875 C 559.222656 251.285156 559.003906 250.097656 558.730469 248.621094 C 558.183594 245.667969 557.367188 243.289062 556.273438 241.484375 C 556.164062 241.210938 556.164062 240.855469 556.273438 240.421875 L 557.664062 235.253906 C 557.773438 234.871094 557.910156 234.679688 558.074219 234.679688 C 558.183594 234.625 558.292969 234.652344 558.402344 234.761719 C 558.839844 235.089844 559.359375 235.746094 559.960938 236.730469 Z M 540.199219 216.96875 C 540.308594 216.804688 540.527344 216.75 540.855469 216.804688 C 543.042969 217.570312 544.984375 218.71875 546.679688 220.246094 C 546.898438 220.464844 546.925781 220.683594 546.761719 220.902344 L 542.90625 227.136719 C 542.742188 227.410156 542.46875 227.382812 542.085938 227.054688 C 541.867188 226.890625 541.292969 226.507812 540.363281 225.90625 C 539.433594 225.304688 538.09375 224.484375 536.347656 223.445312 C 536.074219 223.28125 536.019531 223.117188 536.183594 222.953125 Z M 540.199219 216.96875 "/>
<path fill-rule="nonzero" fill="rgb(52%, 11%, 7%)" fill-opacity="1" d="M 516.011719 256 C 513.660156 255.671875 511.9375 254.550781 510.84375 252.636719 C 509.859375 250.886719 508.820312 246.488281 507.726562 239.4375 C 507.671875 239.109375 507.5625 239.082031 507.398438 239.355469 C 505.648438 242.632812 503.21875 244.492188 500.101562 244.929688 C 498.242188 245.148438 497.09375 244.082031 496.65625 241.730469 C 496.273438 239.054688 496.984375 237.878906 498.789062 238.207031 C 503 238.972656 506.171875 236.976562 508.300781 232.21875 C 508.628906 231.453125 509.039062 231.125 509.53125 231.234375 C 510.078125 231.34375 510.378906 231.753906 510.433594 232.464844 C 511.089844 239.574219 511.828125 244 512.648438 245.75 C 513.46875 247.445312 514.589844 248.402344 516.011719 248.621094 C 517.488281 248.839844 518.058594 250.152344 517.730469 252.554688 C 517.402344 254.960938 516.828125 256.109375 516.011719 256 Z M 507.480469 262.476562 C 507.589844 262.3125 507.808594 262.257812 508.136719 262.3125 C 509.230469 262.695312 510.257812 263.160156 511.214844 263.707031 C 512.171875 264.253906 513.085938 264.910156 513.960938 265.675781 C 514.179688 265.894531 514.207031 266.140625 514.042969 266.414062 L 510.105469 272.644531 C 509.996094 272.808594 509.75 272.753906 509.367188 272.480469 C 509.203125 272.316406 508.738281 272.003906 507.972656 271.539062 C 507.207031 271.074219 506.117188 270.433594 504.695312 269.613281 L 501.578125 274.449219 C 501.414062 274.722656 501.140625 274.695312 500.757812 274.367188 C 500.539062 274.203125 499.964844 273.820312 499.035156 273.21875 C 498.105469 272.617188 496.765625 271.796875 495.019531 270.761719 C 494.800781 270.597656 494.773438 270.433594 494.9375 270.269531 L 498.953125 264.28125 C 499.0625 264.117188 499.28125 264.0625 499.609375 264.117188 C 500.539062 264.390625 501.414062 264.761719 502.234375 265.226562 C 503.054688 265.691406 503.820312 266.222656 504.53125 266.824219 Z M 507.480469 262.476562 "/>
<path fill-rule="nonzero" fill="rgb(52%, 11%, 7%)" fill-opacity="1" d="M 474.027344 237.550781 C 475.121094 238.042969 476.347656 238.519531 477.714844 238.984375 C 479.082031 239.449219 480.585938 239.902344 482.226562 240.339844 C 483.867188 240.722656 485.480469 241.035156 487.0625 241.28125 C 488.648438 241.527344 490.207031 241.621094 491.738281 241.566406 C 492.230469 241.566406 492.613281 241.675781 492.886719 241.894531 C 493.160156 242.113281 493.1875 242.496094 492.96875 243.042969 C 492.476562 244.082031 492.050781 244.984375 491.695312 245.75 C 491.339844 246.515625 491.027344 247.117188 490.753906 247.554688 C 490.207031 248.429688 489.714844 248.867188 489.277344 248.867188 C 487.800781 248.703125 486.230469 248.648438 484.5625 248.703125 C 482.894531 248.757812 481.132812 248.949219 479.273438 249.277344 C 477.414062 249.605469 475.664062 249.960938 474.027344 250.34375 C 472.386719 250.726562 470.855469 251.160156 469.433594 251.652344 C 461.234375 254.386719 456.121094 255.835938 454.101562 256 C 452.078125 256.164062 450.191406 256.164062 448.441406 256 C 448.277344 250.753906 448.359375 247.828125 448.6875 247.226562 C 449.453125 245.75 450.273438 244.328125 451.148438 242.960938 C 452.023438 241.59375 452.953125 240.285156 453.9375 239.027344 C 457.105469 235.035156 459.675781 233.09375 461.644531 233.203125 C 462.628906 233.257812 464.160156 233.640625 466.234375 234.351562 C 468.3125 235.0625 470.910156 236.128906 474.027344 237.550781 Z M 468.777344 244.109375 C 465.386719 242.195312 462.109375 241.183594 458.9375 241.074219 C 457.296875 241.074219 455.738281 241.730469 454.265625 243.042969 C 452.84375 244.300781 451.722656 246.105469 450.902344 248.457031 C 453.417969 248.621094 458.199219 247.800781 465.253906 245.996094 L 468.777344 245.09375 C 469.050781 244.984375 469.214844 244.875 469.269531 244.765625 C 469.378906 244.601562 469.214844 244.382812 468.777344 244.109375 Z M 471.15625 262.640625 C 471.265625 262.476562 471.484375 262.421875 471.8125 262.476562 C 474 263.242188 475.9375 264.390625 477.632812 265.921875 C 477.851562 266.140625 477.878906 266.359375 477.714844 266.578125 L 473.863281 272.808594 C 473.699219 273.082031 473.425781 273.054688 473.042969 272.726562 C 472.824219 272.5625 472.25 272.179688 471.320312 271.578125 C 470.390625 270.976562 469.050781 270.160156 467.300781 269.121094 C 467.027344 268.957031 466.972656 268.792969 467.136719 268.628906 Z M 471.15625 262.640625 "/>
<path fill-rule="nonzero" fill="rgb(52%, 11%, 7%)" fill-opacity="1" d="M 447.949219 236.730469 C 448.605469 237.769531 449.140625 239.066406 449.550781 240.625 C 449.960938 242.183594 450.191406 244.027344 450.246094 246.160156 C 450.355469 248.292969 450.273438 250.355469 450 252.351562 C 449.726562 254.347656 449.261719 256.300781 448.605469 258.214844 C 447.292969 261.984375 444.699219 265.265625 440.816406 268.054688 C 436.933594 270.84375 431.933594 272.316406 425.808594 272.480469 C 416.515625 272.753906 410.96875 269.941406 409.164062 264.035156 C 408.070312 260.375 408.097656 256.574219 409.246094 252.636719 C 409.847656 250.613281 410.558594 248.6875 411.378906 246.855469 C 412.199219 245.023438 413.128906 243.261719 414.164062 241.566406 C 414.4375 241.238281 414.683594 241.074219 414.902344 241.074219 C 415.230469 241.074219 415.449219 241.210938 415.558594 241.484375 C 415.667969 241.757812 415.640625 242.085938 415.476562 242.46875 C 411.542969 249.6875 410.394531 254.960938 412.035156 258.296875 C 414.277344 263.105469 419.003906 265.292969 426.21875 264.855469 C 431.414062 264.527344 435.921875 263.40625 439.75 261.492188 C 443.414062 259.632812 445.871094 257.558594 447.128906 255.261719 C 447.183594 255.152344 447.238281 255.003906 447.292969 254.8125 C 447.347656 254.621094 447.402344 254.359375 447.457031 254.03125 C 447.566406 253.703125 447.539062 253.089844 447.375 252.1875 C 447.210938 251.285156 446.992188 250.097656 446.71875 248.621094 C 446.171875 245.667969 445.351562 243.289062 444.261719 241.484375 C 444.152344 241.210938 444.152344 240.855469 444.261719 240.421875 L 445.652344 235.253906 C 445.761719 234.871094 445.898438 234.679688 446.0625 234.679688 C 446.171875 234.625 446.28125 234.652344 446.390625 234.761719 C 446.828125 235.089844 447.347656 235.746094 447.949219 236.730469 Z M 428.1875 216.96875 C 428.296875 216.804688 428.515625 216.75 428.84375 216.804688 C 431.03125 217.570312 432.972656 218.71875 434.664062 220.246094 C 434.882812 220.464844 434.910156 220.683594 434.746094 220.902344 L 430.894531 227.136719 C 430.730469 227.410156 430.457031 227.382812 430.074219 227.054688 C 429.855469 226.890625 429.28125 226.507812 428.351562 225.90625 C 427.421875 225.304688 426.082031 224.484375 424.335938 223.445312 C 424.0625 223.28125 424.007812 223.117188 424.171875 222.953125 Z M 428.1875 216.96875 "/>
<path fill-rule="nonzero" fill="rgb(52%, 11%, 7%)" fill-opacity="1" d="M 403.996094 256 C 401.648438 255.671875 399.925781 254.550781 398.832031 252.636719 C 397.847656 250.886719 396.808594 246.488281 395.714844 239.4375 C 395.660156 239.109375 395.550781 239.082031 395.386719 239.355469 C 393.636719 242.632812 391.207031 244.492188 388.089844 244.929688 C 386.230469 245.148438 385.082031 244.082031 384.644531 241.730469 C 384.261719 239.054688 384.972656 237.878906 386.777344 238.207031 C 390.988281 238.972656 394.15625 236.976562 396.289062 232.21875 C 396.617188 231.453125 397.027344 231.125 397.519531 231.234375 C 398.066406 231.34375 398.367188 231.753906 398.421875 232.464844 C 399.078125 239.574219 399.816406 244 400.636719 245.75 C 401.457031 247.445312 402.578125 248.402344 403.996094 248.621094 C 405.472656 248.839844 406.046875 250.152344 405.71875 252.554688 C 405.390625 254.960938 404.816406 256.109375 403.996094 256 Z M 395.46875 262.476562 C 395.578125 262.3125 395.796875 262.257812 396.125 262.3125 C 397.21875 262.695312 398.246094 263.160156 399.199219 263.707031 C 400.15625 264.253906 401.074219 264.910156 401.949219 265.675781 C 402.167969 265.894531 402.195312 266.140625 402.03125 266.414062 L 398.09375 272.644531 C 397.984375 272.808594 397.738281 272.753906 397.355469 272.480469 C 397.191406 272.316406 396.726562 272.003906 395.960938 271.539062 C 395.195312 271.074219 394.101562 270.433594 392.683594 269.613281 L 389.566406 274.449219 C 389.402344 274.722656 389.128906 274.695312 388.746094 274.367188 C 388.527344 274.203125 387.953125 273.820312 387.023438 273.21875 C 386.09375 272.617188 384.753906 271.796875 383.007812 270.761719 C 382.789062 270.597656 382.761719 270.433594 382.925781 270.269531 L 386.941406 264.28125 C 387.050781 264.117188 387.269531 264.0625 387.597656 264.117188 C 388.527344 264.390625 389.402344 264.761719 390.222656 265.226562 C 391.042969 265.691406 391.808594 266.222656 392.519531 266.824219 Z M 395.46875 262.476562 "/>
<path fill-rule="nonzero" fill="rgb(52%, 11%, 7%)" fill-opacity="1" d="M 379.316406 232.628906 C 379.535156 232.355469 379.835938 232.519531 380.21875 233.121094 C 380.65625 233.777344 380.902344 235.144531 380.957031 237.222656 C 381.066406 239.410156 380.875 241.484375 380.382812 243.453125 C 379.234375 247.882812 377.8125 250.125 376.117188 250.179688 C 372.128906 250.34375 368.710938 248.949219 365.867188 245.996094 C 364.007812 250.480469 361.386719 253.183594 357.996094 254.113281 C 354.660156 254.988281 351.246094 253.566406 347.746094 249.851562 C 344.902344 253.949219 342.171875 256 339.546875 256 C 339 256 338.507812 254.796875 338.070312 252.390625 C 337.6875 250.039062 338.179688 248.785156 339.546875 248.621094 C 344.902344 248.019531 349.003906 245.257812 351.847656 240.339844 C 352.011719 240.066406 352.203125 239.929688 352.421875 239.929688 C 352.695312 239.929688 352.910156 240.039062 353.074219 240.257812 C 353.347656 240.640625 352.9375 241.839844 351.847656 243.863281 C 352.722656 245.449219 354.933594 246.296875 358.488281 246.40625 C 362.753906 246.515625 366.003906 242.824219 368.246094 235.335938 C 368.355469 234.953125 368.519531 234.761719 368.738281 234.761719 C 369.066406 234.761719 369.3125 234.871094 369.476562 235.089844 C 369.640625 235.363281 369.695312 235.636719 369.640625 235.910156 L 368.820312 239.355469 C 369.96875 240.558594 371.636719 241.484375 373.820312 242.140625 C 376.0625 242.796875 377.347656 242.714844 377.675781 241.894531 C 378.003906 241.128906 377.757812 239.546875 376.9375 237.140625 C 376.828125 236.8125 377.621094 235.308594 379.316406 232.628906 Z M 379.316406 232.628906 "/>
</svg>
