<?xml version="1.0" encoding="UTF-8"?>
<svg xmlns="http://www.w3.org/2000/svg" xmlns:xlink="http://www.w3.org/1999/xlink" width="900" height="320" viewBox="0 0 900 320">
<rect x="-90" y="-32" width="1080" height="384" fill="rgb(97%, 96%, 94%)" fill-opacity="1"/>
<path fill="none" stroke-width="0.75" stroke-linecap="butt" stroke-linejoin="miter" stroke="rgb(35%, 30%, 28%)" stroke-opacity="0.22" stroke-miterlimit="10" d="M 60 160 L 840 160 "/>
<path fill-rule="nonzero" fill="rgb(8%, 8%, 10%)" fill-opacity="1" d="M 336.488281 147.054688 C 331.917969 147.054688 327.898438 146.34375 324.425781 144.921875 C 320.953125 143.5 318.199219 141.472656 316.164062 138.835938 C 314.128906 136.199219 312.976562 133.078125 312.714844 129.476562 L 312.671875 128.859375 L 320.582031 128.859375 L 320.667969 129.476562 C 320.992188 131.585938 321.855469 133.410156 323.261719 134.949219 C 324.667969 136.484375 326.535156 137.671875 328.863281 138.507812 C 331.195312 139.34375 333.882812 139.757812 336.929688 139.757812 C 339.976562 139.757812 342.613281 139.328125 344.839844 138.464844 C 347.066406 137.601562 348.785156 136.359375 350.003906 134.75 C 351.21875 133.140625 351.828125 131.25 351.828125 129.082031 L 351.828125 129.039062 C 351.828125 126.253906 350.859375 124.027344 348.925781 122.359375 C 346.992188 120.6875 343.84375 119.367188 339.476562 118.402344 L 332.445312 116.863281 C 328.316406 115.957031 324.910156 114.71875 322.230469 113.152344 C 319.546875 111.585938 317.546875 109.648438 316.230469 107.351562 C 314.914062 105.050781 314.253906 102.363281 314.253906 99.285156 L 314.253906 99.242188 C 314.28125 95.757812 315.25 92.6875 317.152344 90.035156 C 319.058594 87.382812 321.6875 85.304688 325.042969 83.796875 C 328.398438 82.289062 332.242188 81.53125 336.578125 81.53125 C 340.707031 81.53125 344.398438 82.273438 347.652344 83.75 C 350.902344 85.230469 353.503906 87.289062 355.453125 89.925781 C 357.398438 92.5625 358.492188 95.609375 358.726562 99.066406 L 358.769531 99.726562 L 350.859375 99.726562 L 350.773438 99.109375 C 350.449219 96.941406 349.65625 95.097656 348.398438 93.574219 C 347.140625 92.050781 345.492188 90.878906 343.453125 90.058594 C 341.417969 89.238281 339.054688 88.828125 336.359375 88.828125 C 333.546875 88.828125 331.085938 89.25 328.976562 90.101562 C 326.867188 90.953125 325.230469 92.136719 324.074219 93.660156 C 322.917969 95.183594 322.339844 96.972656 322.339844 99.023438 L 322.339844 99.066406 C 322.339844 100.796875 322.769531 102.320312 323.636719 103.636719 C 324.5 104.953125 325.824219 106.074219 327.613281 107 C 329.398438 107.921875 331.671875 108.691406 334.421875 109.304688 L 341.453125 110.84375 C 345.789062 111.78125 349.3125 113.027344 352.023438 114.578125 C 354.734375 116.132812 356.726562 118.058594 358 120.359375 C 359.273438 122.65625 359.914062 125.417969 359.914062 128.640625 L 359.914062 128.6875 C 359.914062 132.4375 358.96875 135.6875 357.078125 138.441406 C 355.1875 141.195312 352.492188 143.320312 348.992188 144.8125 C 345.492188 146.308594 341.324219 147.054688 336.488281 147.054688 Z M 336.488281 147.054688 "/>
<path fill-rule="nonzero" fill="rgb(8%, 8%, 10%)" fill-opacity="1" d="M 368.4375 146 L 368.4375 100.296875 L 376.085938 100.296875 L 376.085938 146 Z M 372.261719 92.5625 C 370.941406 92.5625 369.8125 92.09375 368.875 91.15625 C 367.9375 90.21875 367.46875 89.089844 367.46875 87.773438 C 367.46875 86.425781 367.9375 85.289062 368.875 84.367188 C 369.8125 83.445312 370.941406 82.984375 372.261719 82.984375 C 373.609375 82.984375 374.742188 83.445312 375.667969 84.367188 C 376.589844 85.289062 377.050781 86.425781 377.050781 87.773438 C 377.050781 89.089844 376.589844 90.21875 375.667969 91.15625 C 374.742188 92.09375 373.609375 92.5625 372.261719 92.5625 Z M 372.261719 92.5625 "/>
<path fill-rule="nonzero" fill="rgb(8%, 8%, 10%)" fill-opacity="1" d="M 386.5 146 L 386.5 100.296875 L 394.144531 100.296875 L 394.144531 106.800781 L 394.320312 106.800781 C 395.550781 104.664062 397.339844 102.898438 399.683594 101.503906 C 402.027344 100.113281 404.925781 99.417969 408.382812 99.417969 C 413.394531 99.417969 417.28125 100.933594 420.050781 103.964844 C 422.820312 107 424.203125 111.121094 424.203125 116.335938 L 424.203125 146 L 416.558594 146 L 416.558594 117.699219 C 416.558594 113.976562 415.6875 111.128906 413.941406 109.152344 C 412.199219 107.175781 409.570312 106.1875 406.054688 106.1875 C 403.652344 106.1875 401.558594 106.71875 399.769531 107.789062 C 397.984375 108.859375 396.597656 110.359375 395.617188 112.292969 C 394.636719 114.226562 394.144531 116.5 394.144531 119.105469 L 394.144531 146 Z M 386.5 146 "/>
<path fill-rule="nonzero" fill="rgb(8%, 8%, 10%)" fill-opacity="1" d="M 453.25 162.257812 C 449.5 162.257812 446.226562 161.726562 443.429688 160.65625 C 440.632812 159.585938 438.375 158.136719 436.664062 156.304688 C 434.949219 154.472656 433.84375 152.429688 433.34375 150.175781 L 433.257812 149.78125 L 440.945312 149.78125 L 441.125 150.175781 C 441.855469 151.816406 443.269531 153.113281 445.363281 154.0625 C 447.457031 155.015625 450.058594 155.492188 453.164062 155.492188 C 457.179688 155.492188 460.28125 154.460938 462.480469 152.394531 C 464.679688 150.328125 465.777344 147.523438 465.777344 143.976562 L 465.777344 138.132812 L 465.601562 138.132812 C 464.691406 139.832031 463.519531 141.296875 462.085938 142.527344 C 460.648438 143.757812 459 144.71875 457.140625 145.40625 C 455.28125 146.09375 453.25 146.4375 451.054688 146.4375 C 447.21875 146.4375 443.839844 145.464844 440.925781 143.515625 C 438.011719 141.570312 435.738281 138.828125 434.113281 135.300781 C 432.488281 131.769531 431.675781 127.632812 431.675781 122.882812 L 431.675781 122.839844 C 431.675781 118.09375 432.503906 113.972656 434.15625 110.46875 C 435.8125 106.96875 438.105469 104.25 441.035156 102.320312 C 443.964844 100.386719 447.363281 99.417969 451.230469 99.417969 C 453.398438 99.417969 455.390625 99.785156 457.207031 100.515625 C 459.023438 101.25 460.640625 102.257812 462.0625 103.546875 C 463.484375 104.835938 464.664062 106.332031 465.601562 108.03125 L 465.777344 108.03125 L 465.777344 100.296875 L 473.421875 100.296875 L 473.421875 144.726562 C 473.421875 148.269531 472.601562 151.355469 470.960938 153.976562 C 469.320312 156.597656 466.992188 158.632812 463.976562 160.085938 C 460.957031 161.535156 457.382812 162.257812 453.25 162.257812 Z M 452.726562 139.671875 C 455.332031 139.671875 457.609375 138.976562 459.558594 137.585938 C 461.507812 136.195312 463.03125 134.238281 464.128906 131.71875 C 465.226562 129.199219 465.777344 126.253906 465.777344 122.882812 L 465.777344 122.839844 C 465.777344 119.472656 465.226562 116.542969 464.128906 114.050781 C 463.03125 111.5625 461.5 109.628906 459.535156 108.25 C 457.574219 106.875 455.304688 106.1875 452.726562 106.1875 C 450.03125 106.1875 447.6875 106.867188 445.695312 108.230469 C 443.703125 109.59375 442.171875 111.515625 441.101562 114.007812 C 440.03125 116.5 439.496094 119.441406 439.496094 122.839844 L 439.496094 122.882812 C 439.496094 126.339844 440.03125 129.324219 441.101562 131.828125 C 442.171875 134.332031 443.703125 136.265625 445.695312 137.628906 C 447.6875 138.992188 450.03125 139.671875 452.726562 139.671875 Z M 452.726562 139.671875 "/>
<path fill-rule="nonzero" fill="rgb(8%, 8%, 10%)" fill-opacity="1" d="M 483.792969 146 L 483.792969 100.296875 L 491.441406 100.296875 L 491.441406 146 Z M 487.617188 92.5625 C 486.296875 92.5625 485.171875 92.09375 484.234375 91.15625 C 483.296875 90.21875 482.828125 89.089844 482.828125 87.773438 C 482.828125 86.425781 483.296875 85.289062 484.234375 84.367188 C 485.171875 83.445312 486.296875 82.984375 487.617188 82.984375 C 488.964844 82.984375 490.101562 83.445312 491.023438 84.367188 C 491.945312 85.289062 492.40625 86.425781 492.40625 87.773438 C 492.40625 89.089844 491.945312 90.21875 491.023438 91.15625 C 490.101562 92.09375 488.964844 92.5625 487.617188 92.5625 Z M 487.617188 92.5625 "/>
<path fill-rule="nonzero" fill="rgb(8%, 8%, 10%)" fill-opacity="1" d="M 501.855469 146 L 501.855469 100.296875 L 509.5 100.296875 L 509.5 106.800781 L 509.679688 106.800781 C 510.910156 104.664062 512.695312 102.898438 515.039062 101.503906 C 517.382812 100.113281 520.28125 99.417969 523.742188 99.417969 C 528.75 99.417969 532.640625 100.933594 535.40625 103.964844 C 538.175781 107 539.5625 111.121094 539.5625 116.335938 L 539.5625 146 L 531.914062 146 L 531.914062 117.699219 C 531.914062 113.976562 531.042969 111.128906 529.300781 109.152344 C 527.554688 107.175781 524.925781 106.1875 521.410156 106.1875 C 519.007812 106.1875 516.914062 106.71875 515.125 107.789062 C 513.339844 108.859375 511.957031 110.359375 510.972656 112.292969 C 509.992188 114.226562 509.5 116.5 509.5 119.105469 L 509.5 146 Z M 501.855469 146 "/>
<path fill-rule="nonzero" fill="rgb(8%, 8%, 10%)" fill-opacity="1" d="M 568.082031 146.878906 C 563.714844 146.878906 559.957031 145.914062 556.808594 143.976562 C 553.660156 142.042969 551.242188 139.3125 549.558594 135.78125 C 547.875 132.25 547.03125 128.101562 547.03125 123.324219 L 547.03125 123.28125 C 547.03125 118.5625 547.882812 114.410156 549.578125 110.820312 C 551.277344 107.234375 553.667969 104.433594 556.742188 102.429688 C 559.820312 100.421875 563.4375 99.417969 567.597656 99.417969 C 571.757812 99.417969 575.339844 100.378906 578.34375 102.296875 C 581.34375 104.214844 583.652344 106.902344 585.265625 110.359375 C 586.875 113.816406 587.679688 117.832031 587.679688 122.402344 L 587.679688 125.214844 L 550.855469 125.214844 L 550.855469 119.238281 L 583.902344 119.238281 L 580.035156 124.773438 L 580.035156 121.828125 C 580.035156 118.285156 579.5 115.355469 578.429688 113.039062 C 577.359375 110.726562 575.890625 109.003906 574.015625 107.878906 C 572.140625 106.75 569.984375 106.1875 567.554688 106.1875 C 565.121094 106.1875 562.9375 106.777344 561.007812 107.964844 C 559.074219 109.152344 557.546875 110.910156 556.4375 113.238281 C 555.324219 115.566406 554.765625 118.429688 554.765625 121.828125 L 554.765625 124.773438 C 554.765625 127.996094 555.316406 130.75 556.414062 133.035156 C 557.511719 135.320312 559.070312 137.070312 561.09375 138.289062 C 563.117188 139.503906 565.503906 140.109375 568.257812 140.109375 C 570.191406 140.109375 571.917969 139.820312 573.441406 139.234375 C 574.964844 138.648438 576.242188 137.839844 577.265625 136.816406 C 578.289062 135.789062 579.023438 134.617188 579.460938 133.300781 L 579.59375 132.90625 L 587.109375 132.90625 L 587.023438 133.34375 C 586.640625 135.21875 585.914062 136.976562 584.847656 138.617188 C 583.777344 140.257812 582.40625 141.699219 580.738281 142.945312 C 579.066406 144.191406 577.164062 145.15625 575.023438 145.847656 C 572.886719 146.535156 570.570312 146.878906 568.082031 146.878906 Z M 568.082031 146.878906 "/>
<path fill-rule="nonzero" fill="rgb(52%, 11%, 7%)" fill-opacity="1" d="M 383.496094 236.730469 C 384.152344 237.769531 384.6875 239.066406 385.097656 240.625 C 385.507812 242.183594 385.738281 244.027344 385.792969 246.160156 C 385.902344 248.292969 385.820312 250.355469 385.546875 252.351562 C 385.273438 254.347656 384.808594 256.300781 384.152344 258.214844 C 382.839844 261.984375 380.246094 265.265625 376.363281 268.054688 C 372.484375 270.84375 367.480469 272.316406 361.359375 272.480469 C 352.066406 272.753906 346.515625 269.941406 344.710938 264.035156 C 343.617188 260.375 343.644531 256.574219 344.792969 252.636719 C 345.394531 250.613281 346.105469 248.6875 346.925781 246.855469 C 347.746094 245.023438 348.675781 243.261719 349.714844 241.566406 C 349.988281 241.238281 350.234375 241.074219 350.453125 241.074219 C 350.78125 241.074219 351 241.210938 351.109375 241.484375 C 351.21875 241.757812 351.191406 242.085938 351.027344 242.46875 C 347.089844 249.6875 345.941406 254.960938 347.582031 258.296875 C 349.824219 263.105469 354.550781 265.292969 361.769531 264.855469 C 366.960938 264.527344 371.472656 263.40625 375.296875 261.492188 C 378.960938 259.632812 381.421875 257.558594 382.679688 255.261719 C 382.734375 255.152344 382.789062 255.003906 382.84375 254.8125 C 382.898438 254.621094 382.953125 254.359375 383.007812 254.03125 C 383.117188 253.703125 383.089844 253.089844 382.925781 252.1875 C 382.761719 251.285156 382.542969 250.097656 382.269531 248.621094 C 381.722656 245.667969 380.902344 243.289062 379.808594 241.484375 C 379.699219 241.210938 379.699219 240.855469 379.808594 240.421875 L 381.203125 235.253906 C 381.3125 234.871094 381.449219 234.679688 381.613281 234.679688 C 381.722656 234.625 381.832031 234.652344 381.941406 234.761719 C 382.378906 235.089844 382.898438 235.746094 383.496094 236.730469 Z M 363.734375 216.96875 C 363.84375 216.804688 364.0625 216.75 364.390625 216.804688 C 366.578125 217.570312 368.519531 218.71875 370.214844 220.246094 C 370.433594 220.464844 370.460938 220.683594 370.296875 220.902344 L 366.441406 227.136719 C 366.277344 227.410156 366.003906 227.382812 365.621094 227.054688 C 365.402344 226.890625 364.828125 226.507812 363.898438 225.90625 C 362.96875 225.304688 361.632812 224.484375 359.882812 223.445312 C 359.609375 223.28125 359.554688 223.117188 359.71875 222.953125 Z M 363.734375 216.96875 "/>
<path fill-rule="nonzero" fill="rgb(52%, 11%, 7%)" fill-opacity="1" d="M 401.867188 256 C 399.515625 255.671875 397.792969 254.550781 396.699219 252.636719 C 395.714844 250.886719 394.675781 246.488281 393.585938 239.4375 C 393.53125 239.109375 393.421875 239.082031 393.257812 239.355469 C 391.507812 242.632812 389.074219 244.492188 385.957031 244.929688 C 384.097656 245.148438 382.953125 244.082031 382.515625 241.730469 C 382.132812 239.054688 382.84375 237.878906 384.644531 238.207031 C 388.855469 238.972656 392.027344 236.976562 394.15625 232.21875 C 394.484375 231.453125 394.894531 231.125 395.386719 231.234375 C 395.933594 231.34375 396.234375 231.753906 396.289062 232.464844 C 396.945312 239.574219 397.683594 244 398.503906 245.75 C 399.324219 247.445312 400.445312 248.402344 401.867188 248.621094 C 403.34375 248.839844 403.914062 250.152344 403.589844 252.554688 C 403.261719 254.960938 402.6875 256.109375 401.867188 256 Z M 393.339844 262.476562 C 393.449219 262.3125 393.664062 262.257812 393.992188 262.3125 C 395.085938 262.695312 396.113281 263.160156 397.070312 263.707031 C 398.027344 264.253906 398.941406 264.910156 399.816406 265.675781 C 400.035156 265.894531 400.0625 266.140625 399.898438 266.414062 L 395.960938 272.644531 C 395.851562 272.808594 395.605469 272.753906 395.222656 272.480469 C 395.058594 272.316406 394.59375 272.003906 393.828125 271.539062 C 393.0625 271.074219 391.972656 270.433594 390.550781 269.613281 L 387.433594 274.449219 C 387.269531 274.722656 386.996094 274.695312 386.613281 274.367188 C 386.394531 274.203125 385.820312 273.820312 384.890625 273.21875 C 383.960938 272.617188 382.625 271.796875 380.875 270.761719 C 380.65625 270.597656 380.628906 270.433594 380.792969 270.269531 L 384.808594 264.28125 C 384.917969 264.117188 385.136719 264.0625 385.464844 264.117188 C 386.394531 264.390625 387.269531 264.761719 388.089844 265.226562 C 388.910156 265.691406 389.675781 266.222656 390.386719 266.824219 Z M 393.339844 262.476562 "/>
<path fill-rule="nonzero" fill="rgb(52%, 11%, 7%)" fill-opacity="1" d="M 427.449219 237.550781 C 428.542969 238.042969 429.773438 238.519531 431.140625 238.984375 C 432.507812 239.449219 434.011719 239.902344 435.648438 240.339844 C 437.289062 240.722656 438.902344 241.035156 440.488281 241.28125 C 442.074219 241.527344 443.632812 241.621094 445.160156 241.566406 C 445.652344 241.566406 446.035156 241.675781 446.308594 241.894531 C 446.582031 242.113281 446.609375 242.496094 446.390625 243.042969 C 445.898438 244.082031 445.476562 244.984375 445.121094 245.75 C 444.765625 246.515625 444.453125 247.117188 444.179688 247.554688 C 443.632812 248.429688 443.140625 248.867188 442.703125 248.867188 C 441.226562 248.703125 439.65625 248.648438 437.988281 248.703125 C 436.320312 248.757812 434.558594 248.949219 432.699219 249.277344 C 430.839844 249.605469 429.089844 249.960938 427.449219 250.34375 C 425.808594 250.726562 424.28125 251.160156 422.859375 251.652344 C 414.660156 254.386719 409.546875 255.835938 407.523438 256 C 405.5 256.164062 403.617188 256.164062 401.867188 256 C 401.703125 250.753906 401.785156 247.828125 402.113281 247.226562 C 402.878906 245.75 403.699219 244.328125 404.570312 242.960938 C 405.445312 241.59375 406.375 240.285156 407.359375 239.027344 C 410.53125 235.035156 413.101562 233.09375 415.066406 233.203125 C 416.050781 233.257812 417.582031 233.640625 419.660156 234.351562 C 421.738281 235.0625 424.335938 236.128906 427.449219 237.550781 Z M 422.203125 244.109375 C 418.8125 242.195312 415.53125 241.183594 412.363281 241.074219 C 410.722656 241.074219 409.164062 241.730469 407.6875 243.042969 C 406.265625 244.300781 405.144531 246.105469 404.324219 248.457031 C 406.839844 248.621094 411.625 247.800781 418.675781 245.996094 L 422.203125 245.09375 C 422.476562 244.984375 422.640625 244.875 422.695312 244.765625 C 422.804688 244.601562 422.640625 244.382812 422.203125 244.109375 Z M 424.578125 262.640625 C 424.6875 262.476562 424.90625 262.421875 425.234375 262.476562 C 427.421875 263.242188 429.363281 264.390625 431.058594 265.921875 C 431.277344 266.140625 431.304688 266.359375 431.140625 266.578125 L 427.285156 272.808594 C 427.121094 273.082031 426.847656 273.054688 426.464844 272.726562 C 426.246094 272.5625 425.671875 272.179688 424.742188 271.578125 C 423.8125 270.976562 422.476562 270.160156 420.726562 269.121094 C 420.453125 268.957031 420.398438 268.792969 420.5625 268.628906 Z M 424.578125 262.640625 "/>
<path fill-rule="nonzero" fill="rgb(52%, 11%, 7%)" fill-opacity="1" d="M 495.511719 236.730469 C 496.167969 237.769531 496.699219 239.066406 497.109375 240.625 C 497.519531 242.183594 497.75 244.027344 497.804688 246.160156 C 497.914062 248.292969 497.832031 250.355469 497.558594 252.351562 C 497.285156 254.347656 496.820312 256.300781 496.164062 258.214844 C 494.851562 261.984375 492.257812 265.265625 488.375 268.054688 C 484.496094 270.84375 479.492188 272.316406 473.371094 272.480469 C 464.078125 272.753906 458.527344 269.941406 456.722656 264.035156 C 455.628906 260.375 455.65625 256.574219 456.804688 252.636719 C 457.40625 250.613281 458.117188 248.6875 458.9375 246.855469 C 459.757812 245.023438 460.6875 243.261719 461.726562 241.566406 C 462 241.238281 462.246094 241.074219 462.464844 241.074219 C 462.792969 241.074219 463.011719 241.210938 463.121094 241.484375 C 463.230469 241.757812 463.203125 242.085938 463.039062 242.46875 C 459.101562 249.6875 457.953125 254.960938 459.59375 258.296875 C 461.835938 263.105469 466.5625 265.292969 473.78125 264.855469 C 478.972656 264.527344 483.484375 263.40625 487.308594 261.492188 C 490.972656 259.632812 493.433594 257.558594 494.691406 255.261719 C 494.746094 255.152344 494.800781 255.003906 494.855469 254.8125 C 494.910156 254.621094 494.964844 254.359375 495.019531 254.03125 C 495.128906 253.703125 495.101562 253.089844 494.9375 252.1875 C 494.773438 251.285156 494.554688 250.097656 494.28125 248.621094 C 493.734375 245.667969 492.914062 243.289062 491.820312 241.484375 C 491.710938 241.210938 491.710938 240.855469 491.820312 240.421875 L 493.214844 235.253906 C 493.324219 234.871094 493.460938 234.679688 493.625 234.679688 C 493.734375 234.625 493.84375 234.652344 493.953125 234.761719 C 494.390625 235.089844 494.910156 235.746094 495.511719 236.730469 Z M 475.746094 216.96875 C 475.855469 216.804688 476.074219 216.75 476.402344 216.804688 C 478.589844 217.570312 480.53125 218.71875 482.226562 220.246094 C 482.445312 220.464844 482.472656 220.683594 482.308594 220.902344 L 478.453125 227.136719 C 478.289062 227.410156 478.015625 227.382812 477.632812 227.054688 C 477.414062 226.890625 476.839844 226.507812 475.910156 225.90625 C 474.980469 225.304688 473.644531 224.484375 471.894531 223.445312 C 471.621094 223.28125 471.566406 223.117188 471.730469 222.953125 Z M 475.746094 216.96875 "/>
<path fill-rule="nonzero" fill="rgb(52%, 11%, 7%)" fill-opacity="1" d="M 513.878906 256 C 511.527344 255.671875 509.804688 254.550781 508.710938 252.636719 C 507.726562 250.886719 506.6875 246.488281 505.597656 239.4375 C 505.542969 239.109375 505.433594 239.082031 505.269531 239.355469 C 503.519531 242.632812 501.085938 244.492188 497.96875 244.929688 C 496.109375 245.148438 494.964844 244.082031 494.527344 241.730469 C 494.144531 239.054688 494.855469 237.878906 496.65625 238.207031 C 500.867188 238.972656 504.039062 236.976562 506.171875 232.21875 C 506.5 231.453125 506.90625 231.125 507.398438 231.234375 C 507.945312 231.34375 508.246094 231.753906 508.300781 232.464844 C 508.957031 239.574219 509.695312 244 510.515625 245.75 C 511.335938 247.445312 512.457031 248.402344 513.878906 248.621094 C 515.355469 248.839844 515.929688 250.152344 515.601562 252.554688 C 515.273438 254.960938 514.699219 256.109375 513.878906 256 Z M 505.351562 262.476562 C 505.460938 262.3125 505.679688 262.257812 506.007812 262.3125 C 507.101562 262.695312 508.125 263.160156 509.082031 263.707031 C 510.039062 264.253906 510.953125 264.910156 511.828125 265.675781 C 512.046875 265.894531 512.074219 266.140625 511.910156 266.414062 L 507.972656 272.644531 C 507.863281 272.808594 507.617188 272.753906 507.234375 272.480469 C 507.070312 272.316406 506.605469 272.003906 505.84375 271.539062 C 505.078125 271.074219 503.984375 270.433594 502.5625 269.613281 L 499.445312 274.449219 C 499.28125 274.722656 499.007812 274.695312 498.625 274.367188 C 498.40625 274.203125 497.832031 273.820312 496.902344 273.21875 C 495.972656 272.617188 494.636719 271.796875 492.886719 270.761719 C 492.667969 270.597656 492.640625 270.433594 492.804688 270.269531 L 496.820312 264.28125 C 496.929688 264.117188 497.148438 264.0625 497.476562 264.117188 C 498.40625 264.390625 499.28125 264.761719 500.101562 265.226562 C 500.921875 265.691406 501.6875 266.222656 502.398438 266.824219 Z M 505.351562 262.476562 "/>
<path fill-rule="nonzero" fill="rgb(52%, 11%, 7%)" fill-opacity="1" d="M 553.648438 232.628906 C 553.867188 232.355469 554.167969 232.519531 554.550781 233.121094 C 554.988281 233.777344 555.234375 235.144531 555.289062 237.222656 C 555.398438 239.410156 555.207031 241.484375 554.714844 243.453125 C 553.566406 247.882812 552.144531 250.125 550.449219 250.179688 C 546.460938 250.34375 543.042969 248.949219 540.199219 245.996094 C 538.339844 250.480469 535.71875 253.183594 532.328125 254.113281 C 528.992188 254.988281 525.578125 253.566406 522.078125 249.851562 C 519.234375 253.949219 516.503906 256 513.878906 256 C 513.332031 256 512.839844 254.796875 512.402344 252.390625 C 512.019531 250.039062 512.511719 248.785156 513.878906 248.621094 C 519.234375 248.019531 523.335938 245.257812 526.179688 240.339844 C 526.34375 240.066406 526.535156 239.929688 526.753906 239.929688 C 527.027344 239.929688 527.242188 240.039062 527.40625 240.257812 C 527.679688 240.640625 527.269531 241.839844 526.179688 243.863281 C 527.054688 245.449219 529.265625 246.296875 532.820312 246.40625 C 537.085938 246.515625 540.335938 242.824219 542.578125 235.335938 C 542.6875 234.953125 542.851562 234.761719 543.070312 234.761719 C 543.398438 234.761719 543.644531 234.871094 543.808594 235.089844 C 543.972656 235.363281 544.027344 235.636719 543.972656 235.910156 L 543.152344 239.355469 C 544.300781 240.558594 545.96875 241.484375 548.152344 242.140625 C 550.394531 242.796875 551.679688 242.714844 552.007812 241.894531 C 552.335938 241.128906 552.089844 239.546875 551.269531 237.140625 C 551.160156 236.8125 551.953125 235.308594 553.648438 232.628906 Z M 553.648438 232.628906 "/>
</svg>
